<?xml version="1.0" encoding="utf-8"?>
<!-- Generator: Adobe Illustrator 23.0.0, SVG Export Plug-In . SVG Version: 6.00 Build 0)  -->
<svg version="1.1" id="Layer_1" xmlns="http://www.w3.org/2000/svg" xmlns:xlink="http://www.w3.org/1999/xlink" x="0px" y="0px"
	 viewBox="0 0 96 96" style="enable-background:new 0 0 96 96;" xml:space="preserve">
<style type="text/css">
	.st0{fill:#000066;}
	.st1{fill-rule:evenodd;clip-rule:evenodd;fill:#FFFFFF;}
	.st2{fill-rule:evenodd;clip-rule:evenodd;fill:#0099CC;}
	.st3{fill:#0099CC;}
	.st4{fill:#3399CC;}
	.st5{fill:none;stroke:#FC030B;stroke-width:4.3197;stroke-linecap:round;stroke-linejoin:round;stroke-miterlimit:22.9256;}
	.st6{fill:none;stroke:#FC030B;stroke-width:7.4027;stroke-linecap:round;stroke-linejoin:round;stroke-miterlimit:22.9256;}
	.st7{fill:#000065;}
	.st8{fill:#010066;}
	.st9{fill:#000068;}
	.st10{fill:#1C1C1B;}
	.st11{fill:none;stroke:#0099CC;stroke-width:13.3566;stroke-linecap:round;stroke-linejoin:round;stroke-miterlimit:22.9256;}
	.st12{fill:#FFFFFF;}
	.st13{fill:#030104;}
	.st14{fill:#003366;}
	.st15{fill:#FF6600;}
	.st16{fill:#FC8C52;}
	.st17{fill:#333333;}
	.st18{fill:#666666;}
	.st19{fill:#CCCCCC;}
	.st20{fill:#F07B00;}
	.st21{fill:#41AE49;}
	.st22{fill:#118A77;}
	.st23{fill:#522B87;}
	.st24{fill:#3580C2;}
	.st25{fill:#7A1F82;}
</style>
<g>
	<path class="st12" d="M32.03,5.25h31.94c6.48,0,12.38,2.91,16.66,7.6c4.29,4.7,6.95,11.18,6.95,18.3v33.69l-0.11,4.21L65.95,90.73
		l-1.98,0.02H32.03c-6.48,0-12.38-2.91-16.66-7.6c-4.29-4.7-6.95-11.18-6.95-18.3V31.15c0-7.12,2.66-13.6,6.95-18.3
		C19.65,8.17,25.55,5.25,32.03,5.25L32.03,5.25z M63.97,14.08H32.03c-4.29,0-8.19,1.92-11.01,5.02c-2.81,3.09-4.56,7.35-4.56,12.06
		v33.16c0,4.7,1.75,8.97,4.56,12.06c2.82,3.1,6.72,5.02,11.01,5.02h30.81l16.7-16.65V31.15c0-4.7-1.75-8.97-4.56-12.06
		C72.16,16,68.26,14.08,63.97,14.08L63.97,14.08z"/>
	<path class="st12" d="M46.91,35.28c2.79,0,5.08,1.9,5.08,4.23c0,2.13,2.07,3.85,4.62,3.85c2.54,0,4.62-1.72,4.62-3.85
		c0-5.22-4.08-9.63-9.7-11.24v-2.18c0-2.12-2.07-3.85-4.62-3.85c-2.56,0-4.62,1.73-4.62,3.85v2.18c-5.62,1.61-9.69,6.02-9.69,11.24
		c0,6.59,6.41,11.94,14.31,11.94c2.79,0,5.08,1.9,5.08,4.23c0,2.33-2.28,4.23-5.08,4.23c-2.79,0-5.07-1.9-5.07-4.23
		c0-2.13-2.07-3.85-4.62-3.85c-2.56,0-4.62,1.73-4.62,3.85c0,5.22,4.07,9.63,9.69,11.24v2.18c0,2.13,2.07,3.86,4.62,3.86
		c2.55,0,4.62-1.73,4.62-3.86v-2.18c5.62-1.61,9.7-6.01,9.7-11.24c0-6.58-6.42-11.94-14.31-11.94c-2.79,0-5.07-1.9-5.07-4.23
		C41.84,37.18,44.12,35.28,46.91,35.28z"/>
</g>
</svg>
