<?xml version="1.0" encoding="utf-8"?>
<!-- Generator: Adobe Illustrator 23.0.0, SVG Export Plug-In . SVG Version: 6.00 Build 0)  -->
<svg version="1.1" id="Layer_1" xmlns="http://www.w3.org/2000/svg" xmlns:xlink="http://www.w3.org/1999/xlink" x="0px" y="0px"
	 viewBox="0 0 96 96" style="enable-background:new 0 0 96 96;" xml:space="preserve">
<style type="text/css">
	.st0{fill:#000066;}
	.st1{fill-rule:evenodd;clip-rule:evenodd;fill:#FFFFFF;}
	.st2{fill-rule:evenodd;clip-rule:evenodd;fill:#0099CC;}
	.st3{fill:#0099CC;}
	.st4{fill:#3399CC;}
	.st5{fill:none;stroke:#FC030B;stroke-width:4.3197;stroke-linecap:round;stroke-linejoin:round;stroke-miterlimit:22.9256;}
	.st6{fill:none;stroke:#FC030B;stroke-width:7.4027;stroke-linecap:round;stroke-linejoin:round;stroke-miterlimit:22.9256;}
	.st7{fill:#000065;}
	.st8{fill:#010066;}
	.st9{fill:#000068;}
	.st10{fill:#1C1C1B;}
	.st11{fill:none;stroke:#0099CC;stroke-width:13.3566;stroke-linecap:round;stroke-linejoin:round;stroke-miterlimit:22.9256;}
	.st12{fill:#FFFFFF;}
	.st13{fill:#030104;}
	.st14{fill:#003366;}
	.st15{fill:#FF6600;}
	.st16{fill:#FC8C52;}
	.st17{fill:#333333;}
	.st18{fill:#666666;}
	.st19{fill:#CCCCCC;}
	.st20{fill:#F07B00;}
	.st21{fill:#41AE49;}
	.st22{fill:#118A77;}
	.st23{fill:#522B87;}
	.st24{fill:#3580C2;}
	.st25{fill:#7A1F82;}
</style>
<g>
	<path class="st0" d="M29.91,4.36h37.36c7.58,0,14.48,3.41,19.48,8.89c5.01,5.5,8.12,13.07,8.12,21.4v26.92l-0.12,4.92L69.58,91.84
		l-2.31,0.02H29.91c-7.58,0-14.48-3.41-19.48-8.89C5.41,77.47,2.3,69.9,2.3,61.57V34.65c0-8.33,3.11-15.9,8.13-21.4
		C15.43,7.77,22.33,4.36,29.91,4.36L29.91,4.36z M68.7,11.76H29.33c-5.29,0-10.09,2.47-13.57,6.43c-3.47,3.96-5.62,9.43-5.62,15.46
		v28.82c0,6.03,2.15,11.5,5.62,15.46c3.48,3.97,8.29,6.43,13.57,6.43h37.98L87.9,63.01V33.65c0-6.03-2.15-11.5-5.62-15.46
		C78.8,14.23,73.99,11.76,68.7,11.76L68.7,11.76z"/>
	<g>
		<path class="st0" d="M12.74,80.33c-0.76,0-1.52-0.25-2.17-0.75c-1.52-1.2-1.78-3.4-0.58-4.92l27.26-34.6
			c1.2-1.52,3.4-1.78,4.92-0.58c1.52,1.2,1.78,3.4,0.58,4.92L15.5,78.99C14.81,79.87,13.78,80.33,12.74,80.33z M79.99,74.75
			c-1.01,0-2.02-0.44-2.71-1.28L53.53,44.51c-1.23-1.5-1.01-3.71,0.49-4.93c1.5-1.23,3.71-1.01,4.93,0.49L82.7,69.02
			c1.23,1.5,1.01,3.71-0.49,4.93C81.56,74.49,80.77,74.75,79.99,74.75z"/>
	</g>
	<g>
		<path class="st0" d="M48.25,49.81c-0.88,0-1.76-0.33-2.44-0.99L16.18,20.15c-1.39-1.35-1.43-3.57-0.08-4.96
			c1.35-1.39,3.57-1.43,4.96-0.08l27.23,26.34l28.05-26.37c1.41-1.33,3.63-1.26,4.96,0.15c1.33,1.41,1.26,3.63-0.15,4.96
			L50.65,48.85C49.98,49.49,49.11,49.81,48.25,49.81z"/>
	</g>
</g>
</svg>
