<?xml version="1.0" encoding="utf-8"?>
<!-- Generator: Adobe Illustrator 23.0.0, SVG Export Plug-In . SVG Version: 6.00 Build 0)  -->
<svg version="1.1" id="Layer_1" xmlns="http://www.w3.org/2000/svg" xmlns:xlink="http://www.w3.org/1999/xlink" x="0px" y="0px"
	 viewBox="0 0 96 96" style="enable-background:new 0 0 96 96;" xml:space="preserve">
<style type="text/css">
	.st0{fill:#000066;}
	.st1{fill-rule:evenodd;clip-rule:evenodd;fill:#FFFFFF;}
	.st2{fill-rule:evenodd;clip-rule:evenodd;fill:#0099CC;}
	.st3{fill:#0099CC;}
	.st4{fill:#3399CC;}
	.st5{fill:none;stroke:#FC030B;stroke-width:4.3197;stroke-linecap:round;stroke-linejoin:round;stroke-miterlimit:22.9256;}
	.st6{fill:none;stroke:#FC030B;stroke-width:7.4027;stroke-linecap:round;stroke-linejoin:round;stroke-miterlimit:22.9256;}
	.st7{fill:#000065;}
	.st8{fill:#010066;}
	.st9{fill:#000068;}
	.st10{fill:#1C1C1B;}
	.st11{fill:none;stroke:#0099CC;stroke-width:13.3566;stroke-linecap:round;stroke-linejoin:round;stroke-miterlimit:22.9256;}
	.st12{fill:#FFFFFF;}
	.st13{fill:#030104;}
	.st14{fill:#003366;}
	.st15{fill:#FF6600;}
	.st16{fill:#FC8C52;}
	.st17{fill:#333333;}
	.st18{fill:#666666;}
	.st19{fill:#CCCCCC;}
	.st20{fill:#F07B00;}
	.st21{fill:#41AE49;}
	.st22{fill:#118A77;}
	.st23{fill:#522B87;}
	.st24{fill:#3580C2;}
	.st25{fill:#7A1F82;}
</style>
<g id="Group_23_1_">
	<g>
		<path class="st12" d="M47.36,68.86c-2.7,0-5.13-0.95-7.02-2.76c-1.96-1.87-2.95-4.51-2.95-7.86c0-3.41,0.55-6.44,1.63-9.01
			c1.08-2.53,2.52-4.78,4.29-6.69c1.59-1.72,3.67-3.7,6.34-6.05c2.25-1.97,3.79-3.37,4.7-4.29c0.37-0.37,0.62-0.83,1.04-1.63
			c0.16-0.31,0.33-0.63,0.52-0.95c0.37-0.68,0.57-1.43,0.57-2.25c0-1.82-0.63-3.25-1.99-4.51c-1.42-1.31-3.27-1.95-5.67-1.95
			c-2.82,0-4.82,0.6-5.93,1.79c-1.46,1.55-2.74,3.99-3.84,7.24c-2.22,7.31-7.3,8.4-10.13,8.4c-2.88,0-5.47-1.08-7.47-3.14
			c-2.01-2.07-3.03-4.41-3.03-6.96c0-3.98,1.26-8.01,3.74-11.98c2.43-3.89,6.01-7.16,10.62-9.7c4.62-2.52,10.01-3.79,16.03-3.79
			c5.58,0,10.61,1.06,14.96,3.16c4.47,2.16,7.97,5.15,10.41,8.88c2.49,3.78,3.75,7.97,3.75,12.44c0,3.53-0.75,6.72-2.22,9.48
			c-1.36,2.52-3.02,4.76-4.95,6.65c-0.36,0.36-0.77,0.76-1.23,1.22c-1.7,1.71-4.03,4.04-7.44,7.1c-1.06,0.96-1.92,1.83-2.55,2.55
			c-0.66,0.75-0.98,1.26-1.13,1.55c-0.24,0.48-0.43,0.95-0.56,1.4c-0.11,0.41-0.35,1.37-0.81,3.34
			C56.07,65.84,52.54,68.86,47.36,68.86z M48.81,13.87c4.19,0,7.7,1.28,10.44,3.81c2.79,2.57,4.26,5.92,4.26,9.69
			c0,2.01-0.49,3.92-1.47,5.69c-0.17,0.31-0.31,0.56-0.44,0.81c-0.54,1.02-1.15,2.17-2.28,3.3c-1.03,1.03-2.68,2.53-5.04,4.6
			c-2.45,2.16-4.41,4.03-5.82,5.54c-1.23,1.33-2.2,2.86-2.97,4.66c-0.71,1.68-1.07,3.79-1.07,6.25c0,0.92,0.13,2.16,0.77,2.76
			c0.59,0.56,1.25,0.81,2.15,0.81c1.57,0,2.38-0.38,2.77-2.57l0.03-0.16c0.39-1.72,0.7-2.97,0.9-3.73c0.26-0.93,0.62-1.83,1.07-2.72
			c0.49-0.96,1.18-1.94,2.09-2.98c0.8-0.93,1.84-1.97,3.14-3.15c3.29-2.95,5.54-5.2,7.17-6.85c0.48-0.48,0.91-0.91,1.28-1.28
			c1.42-1.4,2.66-3.06,3.67-4.96c0.92-1.72,1.39-3.79,1.39-6.15c0-3.12-0.85-5.92-2.6-8.58c-1.76-2.69-4.24-4.79-7.58-6.4
			c-3.38-1.63-7.39-2.46-11.9-2.46c-4.83,0-9.08,0.98-12.64,2.93c-3.54,1.95-6.24,4.4-8.03,7.26c-1.77,2.84-2.67,5.61-2.67,8.24
			c0,0.42,0.11,1.09,1.03,2.04c0.68,0.69,1.43,1.01,2.42,1.01c0.83,0,2.37,0,3.4-3.43l0.03-0.1c1.44-4.31,3.2-7.54,5.39-9.88
			C40.23,15.23,43.96,13.87,48.81,13.87z"/>
	</g>
	<g>
		<path class="st12" d="M48.18,93.2c-6.28,0-11.39-5.11-11.39-11.39s5.11-11.39,11.39-11.39s11.39,5.11,11.39,11.39
			S54.46,93.2,48.18,93.2z M48.18,77.46c-2.4,0-4.35,1.95-4.35,4.35s1.95,4.35,4.35,4.35s4.35-1.95,4.35-4.35
			S50.57,77.46,48.18,77.46z"/>
	</g>
</g>
</svg>
