<?xml version="1.0" encoding="utf-8"?>
<!-- Generator: Adobe Illustrator 23.0.0, SVG Export Plug-In . SVG Version: 6.00 Build 0)  -->
<svg version="1.1" id="Layer_1" xmlns="http://www.w3.org/2000/svg" xmlns:xlink="http://www.w3.org/1999/xlink" x="0px" y="0px"
	 viewBox="0 0 96 96" style="enable-background:new 0 0 96 96;" xml:space="preserve">
<style type="text/css">
	.st0{fill:#000066;}
	.st1{fill-rule:evenodd;clip-rule:evenodd;fill:#FFFFFF;}
	.st2{fill-rule:evenodd;clip-rule:evenodd;fill:#0099CC;}
	.st3{fill:#0099CC;}
	.st4{fill:#3399CC;}
	.st5{fill:none;stroke:#FC030B;stroke-width:4.3197;stroke-linecap:round;stroke-linejoin:round;stroke-miterlimit:22.9256;}
	.st6{fill:none;stroke:#FC030B;stroke-width:7.4027;stroke-linecap:round;stroke-linejoin:round;stroke-miterlimit:22.9256;}
	.st7{fill:#000065;}
	.st8{fill:#010066;}
	.st9{fill:#000068;}
	.st10{fill:#1C1C1B;}
	.st11{fill:none;stroke:#0099CC;stroke-width:13.3566;stroke-linecap:round;stroke-linejoin:round;stroke-miterlimit:22.9256;}
	.st12{fill:#FFFFFF;}
	.st13{fill:#030104;}
	.st14{fill:#003366;}
	.st15{fill:#FF6600;}
	.st16{fill:#FC8C52;}
	.st17{fill:#333333;}
	.st18{fill:#666666;}
	.st19{fill:#CCCCCC;}
	.st20{fill:#F07B00;}
	.st21{fill:#41AE49;}
	.st22{fill:#118A77;}
	.st23{fill:#522B87;}
	.st24{fill:#3580C2;}
	.st25{fill:#7A1F82;}
</style>
<g id="logout_1_">
	<g>
		<path class="st12" d="M83.84,52.63H42.86c-2.25,0-4.07-1.82-4.07-4.07s1.82-4.07,4.07-4.07h40.98c2.25,0,4.07,1.82,4.07,4.07
			S86.09,52.63,83.84,52.63z"/>
	</g>
	<g>
		<path class="st12" d="M68.11,76.93v9.46H17.68V10.74h50.43v9.46h6.3V7.58c0-1.74-1.41-3.15-3.15-3.15H14.53
			c-1.74,0-3.15,1.41-3.15,3.15v81.95c0,1.74,1.41,3.15,3.15,3.15h56.74c1.74,0,3.15-1.41,3.15-3.15V76.93H68.11z"/>
		<path class="st12" d="M71.26,93.56H14.53c-2.22,0-4.02-1.8-4.02-4.02V7.58c0-2.22,1.8-4.02,4.02-4.02h56.74
			c2.22,0,4.02,1.8,4.02,4.02v13.48h-8.05v-9.46H18.55v73.91h48.69v-9.46h8.05v13.48C75.29,91.76,73.48,93.56,71.26,93.56z
			 M14.53,5.3c-1.26,0-2.28,1.02-2.28,2.28v81.95c0,1.26,1.02,2.28,2.28,2.28h56.74c1.26,0,2.28-1.02,2.28-2.28V77.8h-4.56v9.46
			H16.81V9.86h52.18v9.46h4.56V7.58c0-1.26-1.02-2.28-2.28-2.28H14.53z"/>
	</g>
	<g>
		<path class="st12" d="M71.23,65.24c-1.04,0-2.08-0.4-2.88-1.19c-1.59-1.59-1.59-4.16,0-5.75l12.61-12.61
			c1.59-1.59,4.16-1.59,5.75,0c1.59,1.59,1.59,4.16,0,5.75L74.11,64.04C73.32,64.84,72.27,65.24,71.23,65.24z"/>
	</g>
	<g>
		<path class="st12" d="M83.84,52.63c-1.04,0-2.08-0.4-2.88-1.19L68.36,38.83c-1.59-1.59-1.59-4.16,0-5.75
			c1.59-1.59,4.16-1.59,5.75,0l12.61,12.61c1.59,1.59,1.59,4.16,0,5.75C85.92,52.23,84.88,52.63,83.84,52.63z"/>
	</g>
	<g>
		<path class="st12" d="M71.23,27.7c-2.25,0-4.07-1.82-4.07-4.07v-6.3c0-2.25,1.82-4.07,4.07-4.07c2.25,0,4.07,1.82,4.07,4.07v6.3
			C75.3,25.87,73.48,27.7,71.23,27.7z"/>
	</g>
	<g>
		<path class="st12" d="M71.23,84.15c-2.25,0-4.07-1.82-4.07-4.07v-6.3c0-2.25,1.82-4.07,4.07-4.07c2.25,0,4.07,1.82,4.07,4.07v6.3
			C75.3,82.33,73.48,84.15,71.23,84.15z"/>
	</g>
</g>
</svg>
