<?xml version="1.0" encoding="UTF-8"?>
<!DOCTYPE svg PUBLIC "-//W3C//DTD SVG 1.1//EN" "http://www.w3.org/Graphics/SVG/1.1/DTD/svg11.dtd">
<!-- Creator: CorelDRAW 2020 (64-Bit) -->
<svg xmlns="http://www.w3.org/2000/svg" xml:space="preserve" width="11.917mm" height="12.7mm" version="1.1" style="shape-rendering:geometricPrecision; text-rendering:geometricPrecision; image-rendering:optimizeQuality; fill-rule:evenodd; clip-rule:evenodd"
viewBox="0 0 620.11 660.86"
 xmlns:xlink="http://www.w3.org/1999/xlink"
 xmlns:xodm="http://www.corel.com/coreldraw/odm/2003">
 <defs>
  <style type="text/css">
   <![CDATA[
    .fil0 {fill:#0099CC;fill-rule:nonzero}
   ]]>
  </style>
 </defs>
 <g id="Capa_x0020_1">
  <metadata id="CorelCorpID_0Corel-Layer"/>
  <path class="fil0" d="M501.04 284.6c-8,-12.47 -4.38,-29.08 8.09,-37.08 12.47,-8 29.08,-4.38 37.08,8.09 10.02,15.55 16.85,30.76 21.27,46.67 4.32,15.56 6.17,31.46 6.31,48.79l1.3 152.82 0.1 26.88 -129.68 130.1 -26.79 -0.39 -1.33 0.01 0 0.11 -213.47 0c-43.36,0 -82.59,-17.69 -111.09,-46.19 -28.48,-28.49 -46.24,-67.94 -46.61,-111.41l-1.3 -151.51c-0.16,-18.5 2.98,-36.17 8.78,-52.48 6.1,-17.16 15.18,-33.01 26.48,-46.93 9.34,-11.49 26.23,-13.23 37.71,-3.89 11.49,9.34 13.23,26.23 3.89,37.71 -7.43,9.15 -13.41,19.61 -17.45,30.96 -3.86,10.84 -5.94,22.37 -5.84,34.2l1.3 151.51c0.24,28.67 12.08,54.81 31.07,73.81 18.77,18.77 44.58,30.43 73.06,30.43l213.47 0 0 0.1 0.92 -0.01c3.6,-0.03 7.17,-0.25 10.68,-0.64l91.9 -91.97c0.35,-3.42 0.53,-6.89 0.53,-10.41l0.11 0c-0.29,-50.79 -0.87,-101.61 -1.3,-152.4 -0.1,-12.62 -1.4,-24.03 -4.43,-34.92 -2.92,-10.54 -7.66,-20.94 -14.76,-31.96z"/>
  <path class="fil0" d="M131.18 0l357.75 0c29.87,0 56.96,22.69 78.72,52.05 30.45,41.09 52.46,99.65 52.46,116.14 0,24.14 -7.43,44.33 -19.57,60.9 -14.59,19.92 -35.77,33.84 -58.57,42.65 -21.81,8.44 -45.21,12.29 -65.42,12.29 -4.45,0 -8.8,-0.2 -13.03,-0.58 -66.85,-3.7 -93.31,-27.18 -147.16,-28.77 -7.1,-0.21 -15.66,-0.37 -22.72,0.14 -48.37,3.51 -77.72,26.04 -145.35,29.43 -21.51,0 -46.3,-3.93 -69.11,-12.64 -24.04,-9.17 -46.2,-23.82 -61.06,-45.04 -11.31,-16.13 -18.12,-35.49 -18.12,-58.37 0,-16.49 22.02,-75.05 52.47,-116.14 21.76,-29.37 48.85,-52.05 78.72,-52.05zm332.34 232.73c3.78,0.45 8.17,0.69 13.03,0.69 14.81,0 31.74,-2.74 47.23,-8.73 14.5,-5.6 27.63,-13.98 36.03,-25.45 6,-8.19 9.68,-18.45 9.68,-31.04 0,-10.51 -17.78,-52.89 -42.38,-86.09 -13.15,-17.76 -27.13,-31.48 -38.18,-31.48l-357.75 0c-11.05,0 -25.02,13.72 -38.18,31.48 -24.6,33.2 -42.38,75.58 -42.38,86.09 0,11.9 3.32,21.65 8.83,29.51 8.38,11.95 22.2,20.72 37.73,26.64 16.74,6.4 35.09,9.28 51.12,9.28 66.24,-3.08 96.44,-24.39 160.15,-24.54 59.37,-0.14 92.63,20.64 155.09,23.64z"/>
  <path class="fil0" d="M283.47 541.49l0 -48.77 20.46 0 0 -33.04 -20.46 0 0 -122.72 -39.65 0 -67.02 127.44 0 28.32 70.17 0 0 48.77 36.5 0zm-71.74 -81.81l0 -0.63 22.03 -43.11c5.35,-11.33 9.44,-20.46 14.16,-31.78l1.26 0c-0.94,10.69 -2.2,22.65 -2.2,33.67l0 41.85 -35.24 0zm231.59 -37.13l-56.95 0 0 33.67 18.88 0 0 51.29c-1.57,0.63 -4.41,0.95 -8.18,0.95 -19.2,0 -39.02,-18.25 -39.02,-69.22 0,-55.38 22.34,-74.58 50.34,-74.58 10.38,0 18.25,1.58 24.23,4.72l7.23 -35.56c-6.6,-3.14 -18.56,-6.29 -34.61,-6.29 -45,0 -89.05,32.1 -89.99,109.19 -0.63,36.5 9.12,67.96 27.38,85.58 14.16,14.16 32.41,21.09 56.64,21.09 15.42,0 34.93,-3.78 44.05,-7.55l0 -113.28z"/>
 </g>
</svg>
