<?xml version="1.0" encoding="utf-8"?>
<!-- Generator: Adobe Illustrator 23.0.0, SVG Export Plug-In . SVG Version: 6.00 Build 0)  -->
<svg version="1.1" id="Layer_1" xmlns="http://www.w3.org/2000/svg" xmlns:xlink="http://www.w3.org/1999/xlink" x="0px" y="0px"
	 viewBox="0 0 96 96" style="enable-background:new 0 0 96 96;" xml:space="preserve">
<style type="text/css">
	.st0{fill:#000066;}
	.st1{fill-rule:evenodd;clip-rule:evenodd;fill:#FFFFFF;}
	.st2{fill-rule:evenodd;clip-rule:evenodd;fill:#0099CC;}
	.st3{fill:#0099CC;}
	.st4{fill:#3399CC;}
	.st5{fill:none;stroke:#FC030B;stroke-width:4.3197;stroke-linecap:round;stroke-linejoin:round;stroke-miterlimit:22.9256;}
	.st6{fill:none;stroke:#FC030B;stroke-width:7.4027;stroke-linecap:round;stroke-linejoin:round;stroke-miterlimit:22.9256;}
	.st7{fill:#000065;}
	.st8{fill:#010066;}
	.st9{fill:#000068;}
	.st10{fill:#1C1C1B;}
	.st11{fill:none;stroke:#0099CC;stroke-width:13.3566;stroke-linecap:round;stroke-linejoin:round;stroke-miterlimit:22.9256;}
	.st12{fill:#FFFFFF;}
	.st13{fill:#030104;}
	.st14{fill:#003366;}
	.st15{fill:#FF6600;}
	.st16{fill:#FC8C52;}
	.st17{fill:#333333;}
	.st18{fill:#666666;}
	.st19{fill:#CCCCCC;}
	.st20{fill:#F07B00;}
	.st21{fill:#41AE49;}
	.st22{fill:#118A77;}
	.st23{fill:#522B87;}
	.st24{fill:#3580C2;}
	.st25{fill:#7A1F82;}
</style>
<g>
	<path class="st12" d="M33.99,5.25h31.94c6.48,0,12.38,2.91,16.66,7.6c4.29,4.7,6.95,11.18,6.95,18.3v33.69l-0.11,4.21L67.91,90.73
		l-1.98,0.02H33.99c-6.48,0-12.38-2.91-16.66-7.6c-4.29-4.7-6.95-11.18-6.95-18.3V31.15c0-7.12,2.66-13.6,6.95-18.3
		C21.61,8.17,27.51,5.25,33.99,5.25L33.99,5.25z M65.93,14.08H33.99c-4.29,0-8.19,1.92-11.01,5.02c-2.81,3.09-4.56,7.35-4.56,12.06
		v33.16c0,4.7,1.75,8.97,4.56,12.06c2.82,3.1,6.72,5.02,11.01,5.02H64.8l16.7-16.65V31.15c0-4.7-1.75-8.97-4.56-12.06
		C74.12,16,70.22,14.08,65.93,14.08L65.93,14.08z"/>
	<path class="st12" d="M65.78,44.46c-0.58,0-1.15,0.06-1.7,0.18c0-0.03,0-0.06,0-0.09c0-7.62-6.1-13.79-13.62-13.79
		c-6.35,0-11.69,4.4-13.19,10.36c-0.69-0.15-1.41-0.24-2.15-0.24c-5.49,0-9.94,4.51-9.94,10.07c0,5.56,4.45,10.07,9.94,10.07h30.66
		c4.51,0,8.18-3.71,8.18-8.28C73.95,48.17,70.29,44.46,65.78,44.46z"/>
</g>
</svg>
