<?xml version="1.0" encoding="utf-8"?>
<!-- Generator: Adobe Illustrator 23.0.0, SVG Export Plug-In . SVG Version: 6.00 Build 0)  -->
<svg version="1.1" id="Layer_1" xmlns="http://www.w3.org/2000/svg" xmlns:xlink="http://www.w3.org/1999/xlink" x="0px" y="0px"
	 viewBox="0 0 96 96" style="enable-background:new 0 0 96 96;" xml:space="preserve">
<style type="text/css">
	.st0{fill:#000066;}
	.st1{fill-rule:evenodd;clip-rule:evenodd;fill:#FFFFFF;}
	.st2{fill-rule:evenodd;clip-rule:evenodd;fill:#0099CC;}
	.st3{fill:#0099CC;}
	.st4{fill:#3399CC;}
	.st5{fill:none;stroke:#FC030B;stroke-width:4.3197;stroke-linecap:round;stroke-linejoin:round;stroke-miterlimit:22.9256;}
	.st6{fill:none;stroke:#FC030B;stroke-width:7.4027;stroke-linecap:round;stroke-linejoin:round;stroke-miterlimit:22.9256;}
	.st7{fill:#000065;}
	.st8{fill:#010066;}
	.st9{fill:#000068;}
	.st10{fill:#1C1C1B;}
	.st11{fill:none;stroke:#0099CC;stroke-width:13.3566;stroke-linecap:round;stroke-linejoin:round;stroke-miterlimit:22.9256;}
	.st12{fill:#FFFFFF;}
	.st13{fill:#030104;}
	.st14{fill:#003366;}
	.st15{fill:#FF6600;}
	.st16{fill:#FC8C52;}
	.st17{fill:#333333;}
	.st18{fill:#666666;}
	.st19{fill:#CCCCCC;}
	.st20{fill:#F07B00;}
	.st21{fill:#41AE49;}
	.st22{fill:#118A77;}
	.st23{fill:#522B87;}
	.st24{fill:#3580C2;}
	.st25{fill:#7A1F82;}
</style>
<g>
	<path class="st0" d="M35.11,41.99c1.78,0.93,3.4,2.13,5.03,3.33c2.46,1.82,4.93,3.65,7.33,3.65c2.42,0,4.95-1.84,7.48-3.67
		c1.62-1.18,3.25-2.36,5.1-3.31c1.62-0.84,3.22-1.22,4.78-1.22c2.82,0,5.28,1.19,7.41,3.2c1.74,1.64,3.26,3.86,4.56,6.39
		c4,7.76,6.22,19.03,6.22,24.28c0,0.89-0.42,1.69-1.09,2.27L67.51,91.46c-0.72,0.72-1.73,1.09-2.74,1.08
		c-10.55,0.12-21.16,0.35-31.7,0.35v0.01c-5.73,0-10.93-2.09-14.72-5.44c-3.76-3.33-6.12-7.93-6.17-12.96l0-0.18h-0.01
		c0-5.26,2.24-16.52,6.26-24.22c1.29-2.47,2.8-4.64,4.53-6.25c2.1-1.96,4.54-3.11,7.32-3.11C31.87,40.75,33.49,41.14,35.11,41.99
		L35.11,41.99z M35.52,50.15c-1.35-1-2.7-2-4.07-2.72c-0.46-0.24-0.85-0.35-1.18-0.35c-0.63,0-1.35,0.42-2.11,1.13
		c-1.14,1.06-2.22,2.65-3.21,4.54c-3.59,6.86-5.59,16.89-5.59,21.57h-0.01l0,0.13c0.04,3.31,1.6,6.34,4.09,8.55
		c2.48,2.19,5.88,3.56,9.63,3.56v0.01c10.03-0.06,20.07-0.22,30.1-0.34l12.63-12.75c-0.27-5.02-2.22-14.11-5.54-20.54
		c-1-1.94-2.1-3.58-3.27-4.68c-0.78-0.73-1.51-1.17-2.16-1.17c-0.33,0-0.72,0.1-1.16,0.33c-1.35,0.7-2.76,1.72-4.17,2.74
		c-1.61,1.17-2.13,1.33-3.67,2.57c-0.62,0.51-5.84-1.97-8.54-1.97c-2.68,0-5.71,2.92-7.76,1.83C37.78,51.66,37.13,51.34,35.52,50.15
		L35.52,50.15z"/>
	<path class="st0" d="M51.3,49.07h-7.42c-3.87,0-7.38,1.59-9.94,4.14c-2.55,2.55-4.14,6.07-4.14,9.94v3.19
		c0,3.87,1.59,7.38,4.14,9.94c2.55,2.55,6.07,4.14,9.94,4.14h7.42c3.87,0,7.38-1.59,9.94-4.14c2.55-2.55,4.14-6.07,4.14-9.94v-3.19
		c0-3.87-1.59-7.38-4.14-9.94C58.69,50.66,55.17,49.07,51.3,49.07L51.3,49.07z M52.24,60.56v-1.23c0-0.85-0.35-1.62-0.91-2.18
		c-0.56-0.56-1.33-0.91-2.18-0.91h-3.12c-0.85,0-1.62,0.34-2.18,0.9l-0.01,0.01c-0.56,0.55-0.9,1.33-0.9,2.18v1.23H52.24
		L52.24,60.56z M59.18,63.29v4.29c0,2.59-1.06,4.95-2.77,6.66l-0.01,0.01c-1.71,1.71-4.07,2.77-6.66,2.77h-4.29
		c-2.6,0-4.96-1.06-6.67-2.77c-0.05-0.05-0.1-0.11-0.15-0.16C37,72.39,36,70.1,36,67.58v-4.29c0-1.44,1.16-2.6,2.6-2.6h0.55v-1.36
		c0-1.88,0.77-3.59,2.01-4.84l0.01-0.01c1.25-1.24,2.96-2.02,4.85-2.02h3.12c1.89,0,3.61,0.77,4.85,2.02
		c1.24,1.24,2.02,2.96,2.02,4.85v1.36h0.55C58.01,60.69,59.18,61.85,59.18,63.29L59.18,63.29z M53.97,67.58v-1.69H41.21v1.69
		c0,1.11,0.43,2.13,1.14,2.89l0.11,0.1c0.77,0.77,1.83,1.25,2.99,1.25h4.29c1.17,0,2.23-0.48,3-1.24
		C53.5,69.81,53.97,68.75,53.97,67.58L53.97,67.58z"/>
	<path class="st0" d="M47.57,3.1c4.8,0,9.14,1.95,12.29,5.09c3.14,3.14,5.09,7.49,5.09,12.29c0,4.8-2.14,10.01-5.46,13.89
		c-3.22,3.76-7.61,6.36-12.39,6.36c-4.78,0-8.9-2.56-11.88-6.28c-3.12-3.9-5.02-9.16-5.02-13.97c0-4.8,1.95-9.14,5.09-12.29
		C38.42,5.05,42.77,3.1,47.57,3.1L47.57,3.1z M55.07,12.98c-1.92-1.92-4.57-3.11-7.5-3.11c-2.93,0-5.58,1.19-7.5,3.11
		c-1.92,1.92-3.11,4.57-3.11,7.5c0,3.34,1.32,7.01,3.51,9.74c1.78,2.22,4.09,3.74,6.62,3.74c2.65,0,5.24-1.63,7.26-3.98
		c2.33-2.71,3.82-6.28,3.82-9.5C58.17,17.55,56.99,14.9,55.07,12.98L55.07,12.98z"/>
</g>
</svg>
