<?xml version="1.0" encoding="utf-8"?>
<!-- Generator: Adobe Illustrator 23.0.0, SVG Export Plug-In . SVG Version: 6.00 Build 0)  -->
<svg version="1.1" id="Layer_1" xmlns="http://www.w3.org/2000/svg" xmlns:xlink="http://www.w3.org/1999/xlink" x="0px" y="0px"
	 viewBox="0 0 96 96" style="enable-background:new 0 0 96 96;" xml:space="preserve">
<style type="text/css">
	.st0{fill:#000066;}
	.st1{fill-rule:evenodd;clip-rule:evenodd;fill:#FFFFFF;}
	.st2{fill-rule:evenodd;clip-rule:evenodd;fill:#0099CC;}
	.st3{fill:#0099CC;}
	.st4{fill:#3399CC;}
	.st5{fill:none;stroke:#FC030B;stroke-width:4.3197;stroke-linecap:round;stroke-linejoin:round;stroke-miterlimit:22.9256;}
	.st6{fill:none;stroke:#FC030B;stroke-width:7.4027;stroke-linecap:round;stroke-linejoin:round;stroke-miterlimit:22.9256;}
	.st7{fill:#000065;}
	.st8{fill:#010066;}
	.st9{fill:#000068;}
	.st10{fill:#1C1C1B;}
	.st11{fill:none;stroke:#0099CC;stroke-width:13.3566;stroke-linecap:round;stroke-linejoin:round;stroke-miterlimit:22.9256;}
	.st12{fill:#FFFFFF;}
	.st13{fill:#030104;}
	.st14{fill:#003366;}
	.st15{fill:#FF6600;}
	.st16{fill:#FC8C52;}
	.st17{fill:#333333;}
	.st18{fill:#666666;}
	.st19{fill:#CCCCCC;}
	.st20{fill:#F07B00;}
	.st21{fill:#41AE49;}
	.st22{fill:#118A77;}
	.st23{fill:#522B87;}
	.st24{fill:#3580C2;}
	.st25{fill:#7A1F82;}
</style>
<path class="st1" d="M29.81,1.56c-7.66,0-14.94,3.05-20.35,8.46C4.05,15.43,1,22.71,1,30.37v35.38c0,7.66,3.05,14.94,8.46,20.35
	c5.41,5.41,12.69,8.46,20.35,8.46h35.38c7.66,0,14.94-3.05,20.35-8.46C90.95,80.68,94,73.41,94,65.75V30.37
	c0-7.66-3.05-14.94-8.46-20.35C80.13,4.6,72.85,1.56,65.19,1.56H29.81L29.81,1.56z M66.93,9.36c4.98,0.41,9.62,2.6,13.15,6.12
	c3.96,3.96,6.19,9.28,6.19,14.88v12.34H74.85l-0.19-1.98c-0.78-8.23-3.02-16.86-7.16-24.06c-0.76-1.32-1.59-2.6-2.5-3.83l-2.87-3.87
	L66.93,9.36L66.93,9.36z M74.95,50.95h11.32v14.8c0,5.6-2.24,10.92-6.2,14.88c-3.67,3.67-8.53,5.88-13.72,6.16l-4.78,0.26l2.94-3.78
	c1.1-1.42,2.09-2.91,2.98-4.47c4.43-7.69,6.69-17.02,7.31-25.83L74.95,50.95L74.95,50.95z M28.01,86.75
	c-4.95-0.43-9.57-2.61-13.08-6.12c-3.96-3.96-6.19-9.28-6.19-14.88v-14.8h10.78l0.14,2.03c0.62,8.8,2.88,18.13,7.31,25.83
	c0.89,1.54,1.87,3.02,2.95,4.43l3.05,3.94L28.01,86.75L28.01,86.75z M19.62,42.71H8.74V30.37c0-5.6,2.24-10.93,6.19-14.88
	c3.37-3.37,7.76-5.52,12.5-6.06l4.98-0.57l-2.98,4.03c-0.89,1.21-1.71,2.47-2.46,3.78c-4.15,7.2-6.39,15.83-7.16,24.06L19.62,42.71
	L19.62,42.71z M60.4,20.75c3.37,5.86,5.21,12.86,5.95,19.54l0.27,2.42H51.62V11l3.63,3.2C57.32,16.04,59.02,18.36,60.4,20.75
	L60.4,20.75z M43.38,10.83v31.88H27.85l0.27-2.42c0.74-6.68,2.57-13.68,5.95-19.54c1.5-2.61,3.41-5.16,5.76-7.06L43.38,10.83
	L43.38,10.83z M27.75,50.95h15.63v33.7l-3.55-2.86c-2.35-1.9-4.26-4.45-5.76-7.06c-3.67-6.38-5.53-14.13-6.13-21.42L27.75,50.95
	L27.75,50.95z M51.62,84.47V50.95h15.09l-0.19,2.36c-0.6,7.29-2.45,15.04-6.13,21.42c-1.37,2.39-3.07,4.71-5.15,6.54L51.62,84.47
	L51.62,84.47z"/>
</svg>
