<?xml version="1.0" encoding="utf-8"?>
<!-- Generator: Adobe Illustrator 23.0.0, SVG Export Plug-In . SVG Version: 6.00 Build 0)  -->
<svg version="1.1" id="Layer_1" xmlns="http://www.w3.org/2000/svg" xmlns:xlink="http://www.w3.org/1999/xlink" x="0px" y="0px"
	 viewBox="0 0 96 96" style="enable-background:new 0 0 96 96;" xml:space="preserve">
<style type="text/css">
	.st0{fill:#000066;}
	.st1{fill-rule:evenodd;clip-rule:evenodd;fill:#FFFFFF;}
	.st2{fill-rule:evenodd;clip-rule:evenodd;fill:#0099CC;}
	.st3{fill:#0099CC;}
	.st4{fill:#3399CC;}
	.st5{fill:none;stroke:#FC030B;stroke-width:4.3197;stroke-linecap:round;stroke-linejoin:round;stroke-miterlimit:22.9256;}
	.st6{fill:none;stroke:#FC030B;stroke-width:7.4027;stroke-linecap:round;stroke-linejoin:round;stroke-miterlimit:22.9256;}
	.st7{fill:#000065;}
	.st8{fill:#010066;}
	.st9{fill:#000068;}
	.st10{fill:#1C1C1B;}
	.st11{fill:none;stroke:#0099CC;stroke-width:13.3566;stroke-linecap:round;stroke-linejoin:round;stroke-miterlimit:22.9256;}
	.st12{fill:#FFFFFF;}
	.st13{fill:#030104;}
	.st14{fill:#003366;}
	.st15{fill:#FF6600;}
	.st16{fill:#FC8C52;}
	.st17{fill:#333333;}
	.st18{fill:#666666;}
	.st19{fill:#CCCCCC;}
	.st20{fill:#F07B00;}
	.st21{fill:#41AE49;}
	.st22{fill:#118A77;}
	.st23{fill:#522B87;}
	.st24{fill:#3580C2;}
	.st25{fill:#7A1F82;}
</style>
<g>
	<path class="st12" d="M32.73,5.25h31.94c6.48,0,12.38,2.91,16.66,7.6c4.29,4.7,6.95,11.18,6.95,18.3v33.69l-0.11,4.21L66.64,90.73
		l-1.98,0.02H32.73c-6.48,0-12.38-2.91-16.66-7.6c-4.29-4.7-6.95-11.18-6.95-18.3V31.15c0-7.12,2.66-13.6,6.95-18.3
		C20.34,8.17,26.24,5.25,32.73,5.25L32.73,5.25z M64.67,14.08H32.73c-4.29,0-8.19,1.92-11.01,5.02c-2.81,3.09-4.56,7.35-4.56,12.06
		v33.16c0,4.7,1.75,8.97,4.56,12.06c2.82,3.1,6.72,5.02,11.01,5.02h30.81l16.7-16.65V31.15c0-4.7-1.75-8.97-4.56-12.06
		C72.86,16,68.96,14.08,64.67,14.08L64.67,14.08z"/>
	<path class="st12" d="M57.79,22.97H39.6c-4.39,0-8.37,1.79-11.26,4.68c-2.89,2.89-4.68,6.87-4.68,11.26V57.1
		c0,4.39,1.79,8.37,4.68,11.26c2.89,2.89,6.87,4.68,11.26,4.68h18.19c4.38,0,8.37-1.79,11.26-4.68c2.89-2.89,4.68-6.87,4.68-11.26
		V38.9C73.73,30.13,66.56,22.97,57.79,22.97z M49.96,52.26H36.75c-1.32,0-2.39-1.07-2.39-2.39s1.07-2.39,2.39-2.39h10.82V31.95
		c0-1.32,1.07-2.39,2.39-2.39s2.39,1.07,2.39,2.39v17.27c0,0.11-0.01,0.22-0.02,0.32c0.02,0.11,0.02,0.22,0.02,0.33
		C52.36,51.19,51.28,52.26,49.96,52.26z"/>
</g>
</svg>
