<?xml version="1.0" encoding="utf-8"?>
<!-- Generator: Adobe Illustrator 23.0.0, SVG Export Plug-In . SVG Version: 6.00 Build 0)  -->
<svg version="1.1" id="Layer_1" xmlns="http://www.w3.org/2000/svg" xmlns:xlink="http://www.w3.org/1999/xlink" x="0px" y="0px"
	 viewBox="0 0 96 96" style="enable-background:new 0 0 96 96;" xml:space="preserve">
<style type="text/css">
	.st0{fill:#000066;}
	.st1{fill-rule:evenodd;clip-rule:evenodd;fill:#FFFFFF;}
	.st2{fill-rule:evenodd;clip-rule:evenodd;fill:#0099CC;}
	.st3{fill:#0099CC;}
	.st4{fill:#3399CC;}
	.st5{fill:none;stroke:#FC030B;stroke-width:4.3197;stroke-linecap:round;stroke-linejoin:round;stroke-miterlimit:22.9256;}
	.st6{fill:none;stroke:#FC030B;stroke-width:7.4027;stroke-linecap:round;stroke-linejoin:round;stroke-miterlimit:22.9256;}
	.st7{fill:#000065;}
	.st8{fill:#010066;}
	.st9{fill:#000068;}
	.st10{fill:#1C1C1B;}
	.st11{fill:none;stroke:#0099CC;stroke-width:13.3566;stroke-linecap:round;stroke-linejoin:round;stroke-miterlimit:22.9256;}
	.st12{fill:#FFFFFF;}
	.st13{fill:#030104;}
	.st14{fill:#003366;}
	.st15{fill:#FF6600;}
	.st16{fill:#FC8C52;}
	.st17{fill:#333333;}
	.st18{fill:#666666;}
	.st19{fill:#CCCCCC;}
	.st20{fill:#F07B00;}
	.st21{fill:#41AE49;}
	.st22{fill:#118A77;}
	.st23{fill:#522B87;}
	.st24{fill:#3580C2;}
	.st25{fill:#7A1F82;}
</style>
<g>
	<path class="st12" d="M32.78,5.25h31.94c6.48,0,12.38,2.91,16.66,7.6c4.29,4.7,6.95,11.18,6.95,18.3v33.69l-0.11,4.21L66.69,90.73
		l-1.98,0.02H32.78c-6.48,0-12.38-2.91-16.66-7.6c-4.29-4.7-6.95-11.18-6.95-18.3V31.15c0-7.12,2.66-13.6,6.95-18.3
		C20.39,8.17,26.29,5.25,32.78,5.25L32.78,5.25z M64.72,14.08H32.78c-4.29,0-8.19,1.92-11.01,5.02c-2.81,3.09-4.56,7.35-4.56,12.06
		v33.16c0,4.7,1.75,8.97,4.56,12.06c2.82,3.1,6.72,5.02,11.01,5.02h30.81l16.7-16.65V31.15c0-4.7-1.75-8.97-4.56-12.06
		C72.91,16,69.01,14.08,64.72,14.08L64.72,14.08z"/>
	<path class="st12" d="M46.81,24.66c0.5-0.56,1.12-0.84,1.87-0.84c0.75,0,1.37,0.28,1.87,0.84l18.66,19.88
		c0.86,0.86,1.06,1.89,0.58,3.11c-0.47,1.15-1.29,1.73-2.46,1.73H56.69v19.88c0,0.77-0.26,1.43-0.79,2
		c-0.53,0.56-1.15,0.84-1.87,0.84H43.36c-0.72,0-1.35-0.28-1.87-0.84c-0.53-0.56-0.79-1.23-0.79-2V49.38H30.03
		c-1.17,0-1.99-0.58-2.46-1.73c-0.47-1.21-0.28-2.25,0.58-3.11L46.81,24.66z"/>
</g>
</svg>
