<?xml version="1.0" encoding="utf-8"?>
<!-- Generator: Adobe Illustrator 23.0.0, SVG Export Plug-In . SVG Version: 6.00 Build 0)  -->
<svg version="1.1" id="Layer_1" xmlns="http://www.w3.org/2000/svg" xmlns:xlink="http://www.w3.org/1999/xlink" x="0px" y="0px"
	 viewBox="0 0 96 96" style="enable-background:new 0 0 96 96;" xml:space="preserve">
<style type="text/css">
	.st0{fill:#000066;}
	.st1{fill-rule:evenodd;clip-rule:evenodd;fill:#FFFFFF;}
	.st2{fill-rule:evenodd;clip-rule:evenodd;fill:#0099CC;}
	.st3{fill:#0099CC;}
	.st4{fill:#3399CC;}
	.st5{fill:none;stroke:#FC030B;stroke-width:4.3197;stroke-linecap:round;stroke-linejoin:round;stroke-miterlimit:22.9256;}
	.st6{fill:none;stroke:#FC030B;stroke-width:7.4027;stroke-linecap:round;stroke-linejoin:round;stroke-miterlimit:22.9256;}
	.st7{fill:#000065;}
	.st8{fill:#010066;}
	.st9{fill:#000068;}
	.st10{fill:#1C1C1B;}
	.st11{fill:none;stroke:#0099CC;stroke-width:13.3566;stroke-linecap:round;stroke-linejoin:round;stroke-miterlimit:22.9256;}
	.st12{fill:#FFFFFF;}
	.st13{fill:#030104;}
	.st14{fill:#003366;}
	.st15{fill:#FF6600;}
	.st16{fill:#FC8C52;}
	.st17{fill:#333333;}
	.st18{fill:#666666;}
	.st19{fill:#CCCCCC;}
	.st20{fill:#F07B00;}
	.st21{fill:#41AE49;}
	.st22{fill:#118A77;}
	.st23{fill:#522B87;}
	.st24{fill:#3580C2;}
	.st25{fill:#7A1F82;}
</style>
<g>
	<path class="st4" d="M35.39,40.8c1.77,0.93,3.38,2.12,4.99,3.31c2.45,1.81,4.9,3.62,7.28,3.62c2.4,0,4.92-1.82,7.43-3.65
		c1.61-1.17,3.23-2.34,5.07-3.29c1.61-0.83,3.2-1.21,4.75-1.21c2.8,0,5.25,1.18,7.37,3.18c1.73,1.63,3.24,3.83,4.53,6.35
		C80.79,56.82,83,68.02,83,73.24c0,0.88-0.41,1.68-1.08,2.25L67.58,89.96c-0.71,0.72-1.72,1.08-2.73,1.07
		c-10.48,0.12-21.03,0.35-31.5,0.35v0.01c-5.69,0-10.86-2.08-14.62-5.41c-3.74-3.31-6.08-7.88-6.13-12.88l0-0.18h-0.01
		c0-5.23,2.22-16.42,6.23-24.06c1.29-2.46,2.79-4.61,4.5-6.21c2.09-1.94,4.51-3.09,7.27-3.09C32.17,39.57,33.77,39.96,35.39,40.8
		L35.39,40.8z M35.8,48.91c-1.34-0.99-2.68-1.99-4.04-2.7c-0.46-0.24-0.85-0.35-1.17-0.35c-0.62,0-1.34,0.42-2.1,1.13
		c-1.13,1.05-2.21,2.63-3.19,4.51c-3.57,6.82-5.55,16.78-5.55,21.43h-0.01l0,0.13c0.04,3.29,1.59,6.3,4.07,8.5
		c2.46,2.18,5.84,3.54,9.56,3.54v0.01c9.96-0.06,19.94-0.22,29.91-0.33l12.55-12.67c-0.27-4.99-2.21-14.02-5.5-20.41
		c-0.99-1.93-2.09-3.56-3.25-4.65c-0.77-0.73-1.5-1.16-2.14-1.16c-0.33,0-0.71,0.1-1.15,0.33c-1.34,0.69-2.74,1.71-4.14,2.72
		c-3.52,2.55-7.03,5.1-11.96,5.1C42.72,54.03,39.26,51.47,35.8,48.91L35.8,48.91z"/>
	<path class="st4" d="M32.79,43.46c1.55,0.81,7.17,22.89,8.58,23.94c2.14,1.59,4.28,3.17,6.37,3.17c2.1,0,4.3-1.6,6.51-3.19
		c1.41-1.02,7.03-23.09,8.64-23.92c1.41-0.73,2.8-1.06,4.16-1.06c2.45,0,4.6,1.03,6.45,2.78c1.51,1.42-1.37,7.56-0.24,9.76
		c3.48,6.75,5.41,16.55,5.41,21.11c0,0.77-0.36,1.47-0.95,1.97L65.18,90.69c-0.63,0.63-1.5,0.95-2.39,0.94
		c-9.17,0.1-18.4,0.31-27.57,0.31v0.01c-4.98,0-9.51-1.82-12.8-4.73c-3.27-2.9-5.32-6.89-5.37-11.27l0-0.15h-0.01
		c0-4.58,1.95-14.37,5.45-21.06c1.13-2.15-1.77-8.25-0.27-9.64c1.83-1.7,3.94-2.71,6.36-2.71C29.98,42.38,31.38,42.72,32.79,43.46
		L32.79,43.46z"/>
	<path class="st4" d="M47.67,2.6c4.78,0,9.11,1.94,12.25,5.07c3.13,3.13,5.07,7.46,5.07,12.25c0,4.78-2.13,9.98-5.45,13.84
		c-3.21,3.74-7.59,6.34-12.35,6.34c-4.76,0-8.87-2.55-11.84-6.26c-3.11-3.88-5-9.13-5-13.92c0-4.78,1.94-9.11,5.07-12.25
		C38.56,4.54,42.89,2.6,47.67,2.6L47.67,2.6z M55.15,12.45c-1.91-1.91-4.55-3.09-7.47-3.09c-2.92,0-5.56,1.18-7.47,3.09
		c-1.91,1.91-3.09,4.55-3.09,7.47c0,3.33,1.32,6.99,3.5,9.7c1.77,2.21,4.08,3.73,6.59,3.73c2.64,0,5.22-1.62,7.23-3.96
		c2.32-2.7,3.81-6.26,3.81-9.46C58.24,17,57.06,14.36,55.15,12.45L55.15,12.45z"/>
</g>
</svg>
