<?xml version="1.0" encoding="utf-8"?>
<!-- Generator: Adobe Illustrator 23.0.0, SVG Export Plug-In . SVG Version: 6.00 Build 0)  -->
<svg version="1.1" id="Layer_1" xmlns="http://www.w3.org/2000/svg" xmlns:xlink="http://www.w3.org/1999/xlink" x="0px" y="0px"
	 viewBox="0 0 96 96" style="enable-background:new 0 0 96 96;" xml:space="preserve">
<style type="text/css">
	.st0{fill:#000066;}
	.st1{fill-rule:evenodd;clip-rule:evenodd;fill:#FFFFFF;}
	.st2{fill-rule:evenodd;clip-rule:evenodd;fill:#0099CC;}
	.st3{fill:#0099CC;}
	.st4{fill:#3399CC;}
	.st5{fill:none;stroke:#FC030B;stroke-width:4.3197;stroke-linecap:round;stroke-linejoin:round;stroke-miterlimit:22.9256;}
	.st6{fill:none;stroke:#FC030B;stroke-width:7.4027;stroke-linecap:round;stroke-linejoin:round;stroke-miterlimit:22.9256;}
	.st7{fill:#000065;}
	.st8{fill:#010066;}
	.st9{fill:#000068;}
	.st10{fill:#1C1C1B;}
	.st11{fill:none;stroke:#0099CC;stroke-width:13.3566;stroke-linecap:round;stroke-linejoin:round;stroke-miterlimit:22.9256;}
	.st12{fill:#FFFFFF;}
	.st13{fill:#030104;}
	.st14{fill:#003366;}
	.st15{fill:#FF6600;}
	.st16{fill:#FC8C52;}
	.st17{fill:#333333;}
	.st18{fill:#666666;}
	.st19{fill:#CCCCCC;}
	.st20{fill:#F07B00;}
	.st21{fill:#41AE49;}
	.st22{fill:#118A77;}
	.st23{fill:#522B87;}
	.st24{fill:#3580C2;}
	.st25{fill:#7A1F82;}
</style>
<g>
	<path class="st12" d="M32.73,5.07h31.94c6.48,0,12.38,2.91,16.66,7.6c4.29,4.7,6.95,11.18,6.95,18.3v33.69l-0.11,4.21L66.64,90.55
		l-1.98,0.02H32.73c-6.48,0-12.38-2.91-16.66-7.6c-4.29-4.7-6.95-11.18-6.95-18.3V30.97c0-7.12,2.66-13.6,6.95-18.3
		C20.34,7.98,26.24,5.07,32.73,5.07L32.73,5.07z M64.67,13.9H32.73c-4.29,0-8.19,1.92-11.01,5.02c-2.81,3.09-4.56,7.35-4.56,12.06
		v33.16c0,4.7,1.75,8.97,4.56,12.06c2.82,3.1,6.72,5.02,11.01,5.02h30.81l16.7-16.65V30.97c0-4.7-1.75-8.97-4.56-12.06
		C72.86,15.82,68.96,13.9,64.67,13.9L64.67,13.9z"/>
	<g>
		<path class="st1" d="M43.66,62.35c0-1.86,0.24-2.83,1.57-4.12c3.27-3.15,8.57-0.59,8.57,3.37v0.74c0,2.38-2.3,4.7-4.7,4.7h-0.74
			C45.98,67.06,43.66,64.74,43.66,62.35L43.66,62.35z"/>
		<path class="st1" d="M33.89,52.58c0-1.49,0.18-2.73,1.27-3.93c0.57-0.62,2.48-2.08,3.3-2.63c0.33-0.22,0.56-0.32,0.94-0.55
			c6.31-3.74,14.6-3.1,20.41,1.09l1.63,1.34c0.28,0.28,0.54,0.47,0.78,0.71c2.72,2.68,1.36,8.67-3.72,8.67
			c-4.05,0-3.83-3.78-9.66-4.08c-1.7-0.09-3.71,0.71-5.14,1.65c-0.79,0.53-1.12,1.05-1.88,1.58C38.7,58.6,33.89,56.4,33.89,52.58
			L33.89,52.58z"/>
		<path class="st1" d="M29.19,47.51c-2.81,0-5.07-2.27-5.07-4.58c0-3.54,1.11-3.75,2.57-5.23c0.45-0.46,0.76-0.71,1.25-1.1
			c1.78-1.42,3.53-2.68,5.58-3.7c1.94-0.96,4.3-2.01,6.58-2.57c6.07-1.5,11.1-1.54,17.17-0.02c2.79,0.69,7.12,2.61,9.58,4.28
			c0.72,0.49,3.17,2.34,3.82,2.99c0.22,0.22,0.34,0.34,0.55,0.56c0.27,0.28,0.43,0.35,0.67,0.57l0.98,1.37
			c0.95,1.94,0.58,4.47-1.02,6.04c-1.54,1.51-4.27,1.84-6.11,0.72c-0.86-0.52-1.13-0.86-1.81-1.53c-0.95-0.94-2.75-2.13-3.88-2.8
			c-2.63-1.58-6.87-3.04-10.2-3.04c-3.66,0-4.15-0.05-7.78,1c-1.78,0.52-3.17,1.14-4.66,2.02C33.15,44.99,32.35,47.51,29.19,47.51
			L29.19,47.51z"/>
	</g>
</g>
</svg>
